<svg width="101" height="55" viewBox="0 0 101 55" fill="none" xmlns="http://www.w3.org/2000/svg">
<g id="bt_back">
<path id="Rectangle 10252" d="M101 27.0536C101 12.1123 88.8877 0 73.9464 0H27.0536C12.1123 0 0 12.1123 0 27.0536C0 41.9949 12.1123 54.1071 27.0536 54.1071H73.9464C88.8877 54.1071 101 41.9949 101 27.0536Z" fill="#9B9BB1"/>
<path id="Vector" d="M58.5123 41.1158L44.138 27.6534L58.5123 14.191C58.7696 13.9504 58.9137 13.6275 58.9137 13.2913C58.9137 12.9551 58.7696 12.6322 58.5123 12.3917C58.3873 12.2752 58.2381 12.1827 58.0735 12.1195C57.9088 12.0563 57.732 12.0238 57.5534 12.0238C57.3748 12.0238 57.198 12.0563 57.0334 12.1195C56.8687 12.1827 56.7195 12.2752 56.5945 12.3917L41.2998 26.7133C41.0312 26.9648 40.8809 27.3022 40.8809 27.6534C40.8809 28.0046 41.0312 28.3419 41.2998 28.5934L56.5916 42.9151C56.7167 43.0324 56.8662 43.1256 57.0314 43.1893C57.1966 43.2529 57.3741 43.2857 57.5534 43.2857C57.7327 43.2857 57.9102 43.2529 58.0754 43.1893C58.2406 43.1256 58.3902 43.0324 58.5152 42.9151C58.7726 42.6746 58.9167 42.3517 58.9167 42.0155C58.9167 41.6792 58.7726 41.3563 58.5152 41.1158H58.5123Z" fill="white"/>
</g>
</svg>
